<svg xmlns="http://www.w3.org/2000/svg" width="191" height="153" viewBox="0 0 191 153">
  <g fill="none" fill-rule="evenodd">
    <g stroke="#7F8E7E" opacity=".183">
      <rect width="19" height="19" x=".5" y=".5"/>
      <rect width="19" height="19" x="19.5" y=".5"/>
      <rect width="19" height="19" x="38.5" y=".5"/>
      <rect width="19" height="19" x="57.5" y=".5"/>
      <rect width="19" height="19" x="76.5" y=".5"/>
      <rect width="19" height="19" x="95.5" y=".5"/>
      <rect width="19" height="19" x="114.5" y=".5"/>
      <rect width="19" height="19" x="133.5" y=".5"/>
      <rect width="19" height="19" x="152.5" y=".5"/>
      <rect width="19" height="19" x="171.5" y=".5"/>
      <rect width="19" height="19" x=".5" y="19.5"/>
      <rect width="19" height="19" x="19.5" y="19.5"/>
      <rect width="19" height="19" x="38.5" y="19.5"/>
      <rect width="19" height="19" x="57.5" y="19.5"/>
      <rect width="19" height="19" x="76.5" y="19.5"/>
      <rect width="19" height="19" x="95.5" y="19.5"/>
      <rect width="19" height="19" x="114.5" y="19.5"/>
      <rect width="19" height="19" x="133.5" y="19.5"/>
      <rect width="19" height="19" x="152.5" y="19.5"/>
      <rect width="19" height="19" x="171.5" y="19.5"/>
      <rect width="19" height="19" x=".5" y="38.5"/>
      <rect width="19" height="19" x="19.5" y="38.5"/>
      <rect width="19" height="19" x="38.5" y="38.5"/>
      <rect width="19" height="19" x="57.5" y="38.5"/>
      <rect width="19" height="19" x="76.5" y="38.5"/>
      <rect width="19" height="19" x="95.5" y="38.5"/>
      <rect width="19" height="19" x="114.5" y="38.5"/>
      <rect width="19" height="19" x="133.5" y="38.5"/>
      <rect width="19" height="19" x="152.5" y="38.5"/>
      <rect width="19" height="19" x="171.5" y="38.5"/>
      <rect width="19" height="19" x=".5" y="57.5"/>
      <rect width="19" height="19" x="19.5" y="57.5"/>
      <rect width="19" height="19" x="38.5" y="57.5"/>
      <rect width="19" height="19" x="57.5" y="57.5"/>
      <rect width="19" height="19" x="76.5" y="57.5"/>
      <rect width="19" height="19" x="95.5" y="57.5"/>
      <rect width="19" height="19" x="114.5" y="57.5"/>
      <rect width="19" height="19" x="133.5" y="57.5"/>
      <rect width="19" height="19" x="152.5" y="57.5"/>
      <rect width="19" height="19" x="171.5" y="57.5"/>
      <rect width="19" height="19" x=".5" y="76.5"/>
      <rect width="19" height="19" x="19.5" y="76.5"/>
      <rect width="19" height="19" x="38.5" y="76.5"/>
      <rect width="19" height="19" x="57.5" y="76.5"/>
      <rect width="19" height="19" x="76.5" y="76.5"/>
      <rect width="19" height="19" x="95.5" y="76.5"/>
      <rect width="19" height="19" x="114.5" y="76.5"/>
      <rect width="19" height="19" x="133.5" y="76.5"/>
      <rect width="19" height="19" x="152.5" y="76.5"/>
      <rect width="19" height="19" x="171.5" y="76.5"/>
      <rect width="19" height="19" x=".5" y="95.5"/>
      <rect width="19" height="19" x="19.5" y="95.5"/>
      <rect width="19" height="19" x="38.5" y="95.5"/>
      <rect width="19" height="19" x="57.5" y="95.5"/>
      <rect width="19" height="19" x="76.5" y="95.5"/>
      <rect width="19" height="19" x="95.5" y="95.5"/>
      <rect width="19" height="19" x="114.5" y="95.5"/>
      <rect width="19" height="19" x="133.5" y="95.5"/>
      <rect width="19" height="19" x="152.5" y="95.5"/>
      <rect width="19" height="19" x="171.5" y="95.5"/>
      <rect width="19" height="19" x=".5" y="114.5"/>
      <rect width="19" height="19" x="19.5" y="114.5"/>
      <rect width="19" height="19" x="38.5" y="114.5"/>
      <rect width="19" height="19" x="57.5" y="114.5"/>
      <rect width="19" height="19" x="76.5" y="114.5"/>
      <rect width="19" height="19" x="95.5" y="114.5"/>
      <rect width="19" height="19" x="114.5" y="114.5"/>
      <rect width="19" height="19" x="133.5" y="114.5"/>
      <rect width="19" height="19" x="152.5" y="114.5"/>
      <rect width="19" height="19" x="171.5" y="114.5"/>
      <rect width="19" height="19" x=".5" y="133.5"/>
      <rect width="19" height="19" x="19.5" y="133.5"/>
      <rect width="19" height="19" x="38.5" y="133.5"/>
      <rect width="19" height="19" x="57.5" y="133.5"/>
      <rect width="19" height="19" x="76.5" y="133.5"/>
      <rect width="19" height="19" x="95.5" y="133.5"/>
      <rect width="19" height="19" x="114.5" y="133.5"/>
      <rect width="19" height="19" x="133.5" y="133.5"/>
      <rect width="19" height="19" x="152.5" y="133.5"/>
      <rect width="19" height="19" x="171.5" y="133.5"/>
    </g>
    <g stroke="#000" stroke-linecap="square" stroke-width="2" transform="translate(20 19)">
      <path d="M56.5.5L75.5 57.5M113 20L75.5 57.5M151 39L75.5 57.5 151 39zM113 95L75.5 57.5M57 114L75.5 57.5M0 76L75.5 57.5"/>
    </g>
    <circle cx="96" cy="76" r="4" fill="#FFBEBE" stroke="#000"/>
    <circle cx="171.5" cy="57.5" r="3.5" fill="#BEF6FF" stroke="#000"/>
    <circle cx="133.5" cy="38.5" r="3.5" fill="#BEF6FF" stroke="#000"/>
    <circle cx="76.5" cy="19.5" r="3.5" fill="#BEF6FF" stroke="#000"/>
    <circle cx="19.5" cy="95.5" r="3.5" fill="#BEF6FF" stroke="#000"/>
    <circle cx="76.5" cy="133.5" r="3.5" fill="#BEF6FF" stroke="#000"/>
    <circle cx="133.5" cy="114.5" r="3.5" fill="#BEF6FF" stroke="#000"/>
    <path fill="#000" d="M104.544 79.8851816C104.544 81.1157998 104.982909 81.7517174 105.860727 82.4995093L105.594909 82.7703631C104.587273 81.9872424 104 81.2276742 104 79.8851816 104 78.5426889 104.587273 77.7831207 105.594909 77L105.860727 77.2708538C104.970545 78.0245339 104.544 78.6486752 104.544 79.8851816zM109.946909 77.889107L109.872727 78.2894995 108.191273 78.2894995 108.191273 79.5672228C108.444727 79.4317959 108.667273 79.390579 108.920727 79.390579 109.619273 79.390579 110.089091 79.8498528 110.089091 80.6624141 110.089091 81.4749755 109.526545 82.0107949 108.648727 82.0107949 108.135636 82.0107949 107.74 81.828263 107.412364 81.5279686L107.733818 81.2276742C107.993455 81.4808636 108.284 81.6045142 108.648727 81.6045142 109.211273 81.6045142 109.545091 81.2747792 109.545091 80.6447498 109.545091 79.9970559 109.205091 79.7791953 108.772364 79.7791953 108.525091 79.7791953 108.358182 79.8321884 108.110909 79.9146222L107.690545 79.9146222 107.690545 77.889107 109.946909 77.889107zM112.5 80.9744848C112.784364 80.9744848 113.000727 81.1864573 113.000727 81.4455348 113.000727 81.592738 112.969818 81.7281649 112.883273 81.9106968L112.382545 83 111.912727 83 112.203273 81.8400393C112.085818 81.7576055 112.005455 81.6045142 112.005455 81.451423 112.005455 81.1864573 112.221818 80.9744848 112.5 80.9744848zM117.618545 80.562316L117.618545 80.9627085 117.068364 80.9627085 117.068364 81.9460255 116.567636 81.9460255 116.567636 80.9627085 114.799636 80.9627085 114.799636 80.5976447 116.048364 77.8243376 116.481091 78.0009814 115.349818 80.562316 116.573818 80.562316 116.617091 79.4141315 117.068364 79.4141315 117.068364 80.562316 117.618545 80.562316zM120.456 79.8851816C120.456 78.6486752 120.029455 78.0245339 119.139273 77.2708538L119.405091 77C120.412727 77.7831207 121 78.5426889 121 79.8851816 121 81.2276742 120.412727 81.9872424 119.405091 82.7703631L119.139273 82.4995093C120.017091 81.7517174 120.456 81.1157998 120.456 79.8851816zM82.544 23.8851816C82.544 25.1157998 82.9829091 25.7517174 83.8607273 26.4995093L83.5949091 26.7703631C82.5872727 25.9872424 82 25.2276742 82 23.8851816 82 22.5426889 82.5872727 21.7831207 83.5949091 21L83.8607273 21.2708538C82.9705455 22.0245339 82.544 22.6486752 82.544 23.8851816zM86.5992727 21.8243376C87.4029091 21.8243376 87.9036364 22.2894995 87.9036364 22.8429833 87.9036364 23.3316977 87.5203636 23.7026497 87.0752727 23.7850834 87.5698182 23.8204122 88.0396364 24.1501472 88.0396364 24.7801766 88.0396364 25.4808636 87.4461818 26.0107949 86.5621818 26.0107949 86.0861818 26.0107949 85.5792727 25.8459274 85.2578182 25.4749755L85.604 25.2041217C85.8450909 25.4749755 86.2036364 25.6045142 86.5498182 25.6045142 87.1432727 25.6045142 87.4956364 25.2865554 87.4956364 24.7801766 87.4956364 24.1972522 87.1185455 24.0088322 86.6116364 24.0088322L86.2592727 24.0088322 86.3210909 23.6143278 86.5745455 23.6143278C86.9825455 23.6143278 87.3781818 23.3964671 87.3781818 22.9077527 87.3781818 22.4661433 87.0258182 22.2247301 86.5745455 22.2247301 86.2098182 22.2247301 85.9563636 22.3483808 85.672 22.595682L85.3876364 22.2953876C85.7523636 21.9656526 86.1603636 21.8243376 86.5992727 21.8243376zM90.5 24.9744848C90.7843636 24.9744848 91.0007273 25.1864573 91.0007273 25.4455348 91.0007273 25.592738 90.9698182 25.7281649 90.8832727 25.9106968L90.3825455 27 89.9127273 27 90.2032727 25.8400393C90.0858182 25.7576055 90.0054545 25.6045142 90.0054545 25.451423 90.0054545 25.1864573 90.2218182 24.9744848 90.5 24.9744848zM94.6665455 25.545633L95.5505455 25.545633 95.5505455 25.9460255 93.0963636 25.9460255 93.0963636 25.545633 94.1410909 25.545633 94.1410909 22.4308145 93.1705455 22.9901865 92.9418182 22.642787 94.2090909 21.889107 94.6665455 21.889107 94.6665455 25.545633zM98.456 23.8851816C98.456 22.6486752 98.0294545 22.0245339 97.1392727 21.2708538L97.4050909 21C98.4127273 21.7831207 99 22.5426889 99 23.8851816 99 25.2276742 98.4127273 25.9872424 97.4050909 26.7703631L97.1392727 26.4995093C98.0170909 25.7517174 98.456 25.1157998 98.456 23.8851816zM134.544 46.8851816C134.544 48.1157998 134.982909 48.7517174 135.860727 49.4995093L135.594909 49.7703631C134.587273 48.9872424 134 48.2276742 134 46.8851816 134 45.5426889 134.587273 44.7831207 135.594909 44L135.860727 44.2708538C134.970545 45.0245339 134.544 45.6486752 134.544 46.8851816zM138.358182 48.9990186L137.876 48.8635918 139.532727 45.3012758 137.536 45.3012758 137.536 44.889107 140.058182 44.889107 140.058182 45.2718351 138.358182 48.9990186zM142.5 47.9744848C142.784364 47.9744848 143.000727 48.1864573 143.000727 48.4455348 143.000727 48.592738 142.969818 48.7281649 142.883273 48.9106968L142.382545 50 141.912727 50 142.203273 48.8400393C142.085818 48.7576055 142.005455 48.6045142 142.005455 48.451423 142.005455 48.1864573 142.221818 47.9744848 142.5 47.9744848zM146.017455 44.8243376C146.821091 44.8243376 147.303273 45.313052 147.303273 45.9548577 147.303273 46.7026497 146.802545 47.3032385 145.399273 48.5220805L147.402182 48.5220805 147.340364 48.9460255 144.805818 48.9460255 144.805818 48.545633C146.413091 47.0794897 146.759273 46.6319921 146.759273 45.9725221 146.759273 45.5191364 146.468727 45.2423945 145.992727 45.2423945 145.578545 45.2423945 145.349818 45.3719333 145.077818 45.6722277L144.719273 45.407262C145.053091 45.0186457 145.442545 44.8243376 146.017455 44.8243376zM150.456 46.8851816C150.456 45.6486752 150.029455 45.0245339 149.139273 44.2708538L149.405091 44C150.412727 44.7831207 151 45.5426889 151 46.8851816 151 48.2276742 150.412727 48.9872424 149.405091 49.7703631L149.139273 49.4995093C150.017091 48.7517174 150.456 48.1157998 150.456 46.8851816zM170.544 66.8851816C170.544 68.1157998 170.982909 68.7517174 171.860727 69.4995093L171.594909 69.7703631C170.587273 68.9872424 170 68.2276742 170 66.8851816 170 65.5426889 170.587273 64.7831207 171.594909 64L171.860727 64.2708538C170.970545 65.0245339 170.544 65.6486752 170.544 66.8851816zM174.722909 64.8302257C175.674909 64.8302257 176.113818 65.4308145 176.113818 66.3964671 176.113818 68.1275761 175.433818 68.6457311 173.845091 69.0696762L173.721455 68.6928361C174.858909 68.4102061 175.545091 67.9450442 175.563636 66.9617272 175.378182 67.2208047 175.038182 67.4504416 174.568364 67.4622179 173.857455 67.468106 173.344364 66.9735034 173.344364 66.1668302 173.344364 65.2953876 173.956364 64.8302257 174.722909 64.8302257zM174.661091 67.0618253C175.056727 67.0559372 175.347273 66.8439647 175.576 66.5260059 175.594545 65.5544652 175.316364 65.2306183 174.722909 65.2306183 174.172727 65.2306183 173.888364 65.5603533 173.888364 66.1844946 173.888364 66.8027478 174.178909 67.0677134 174.661091 67.0618253zM178.5 67.9744848C178.784364 67.9744848 179.000727 68.1864573 179.000727 68.4455348 179.000727 68.592738 178.969818 68.7281649 178.883273 68.9106968L178.382545 70 177.912727 70 178.203273 68.8400393C178.085818 68.7576055 178.005455 68.6045142 178.005455 68.451423 178.005455 68.1864573 178.221818 67.9744848 178.5 67.9744848zM182.017455 64.8243376C182.821091 64.8243376 183.321818 65.2894995 183.321818 65.8429833 183.321818 66.3316977 182.938545 66.7026497 182.493455 66.7850834 182.988 66.8204122 183.457818 67.1501472 183.457818 67.7801766 183.457818 68.4808636 182.864364 69.0107949 181.980364 69.0107949 181.504364 69.0107949 180.997455 68.8459274 180.676 68.4749755L181.022182 68.2041217C181.263273 68.4749755 181.621818 68.6045142 181.968 68.6045142 182.561455 68.6045142 182.913818 68.2865554 182.913818 67.7801766 182.913818 67.1972522 182.536727 67.0088322 182.029818 67.0088322L181.677455 67.0088322 181.739273 66.6143278 181.992727 66.6143278C182.400727 66.6143278 182.796364 66.3964671 182.796364 65.9077527 182.796364 65.4661433 182.444 65.2247301 181.992727 65.2247301 181.628 65.2247301 181.374545 65.3483808 181.090182 65.595682L180.805818 65.2953876C181.170545 64.9656526 181.578545 64.8243376 182.017455 64.8243376zM186.456 66.8851816C186.456 65.6486752 186.029455 65.0245339 185.139273 64.2708538L185.405091 64C186.412727 64.7831207 187 65.5426889 187 66.8851816 187 68.2276742 186.412727 68.9872424 185.405091 69.7703631L185.139273 69.4995093C186.017091 68.7517174 186.456 68.1157998 186.456 66.8851816zM140.544 111.885182C140.544 113.1158 140.982909 113.751717 141.860727 114.499509L141.594909 114.770363C140.587273 113.987242 140 113.227674 140 111.885182 140 110.542689 140.587273 109.783121 141.594909 109L141.860727 109.270854C140.970545 110.024534 140.544 110.648675 140.544 111.885182zM144.358182 113.999019L143.876 113.863592 145.532727 110.301276 143.536 110.301276 143.536 109.889107 146.058182 109.889107 146.058182 110.271835 144.358182 113.999019zM148.5 112.974485C148.784364 112.974485 149.000727 113.186457 149.000727 113.445535 149.000727 113.592738 148.969818 113.728165 148.883273 113.910697L148.382545 115 147.912727 115 148.203273 113.840039C148.085818 113.757605 148.005455 113.604514 148.005455 113.451423 148.005455 113.186457 148.221818 112.974485 148.5 112.974485zM152.394545 111.308145C153.043636 111.308145 153.6 111.714426 153.6 112.57998 153.6 113.480864 153.000364 114.010795 152.258545 114.010795 151.226182 114.010795 150.842909 113.23945 150.842909 112.032385 150.842909 110.684004 151.430182 109.824338 152.425455 109.824338 152.759273 109.824338 153.031273 109.912659 153.272364 110.065751L153.068364 110.395486C152.870545 110.283611 152.654182 110.22473 152.419273 110.22473 151.770182 110.22473 151.386909 110.860648 151.368364 111.849853 151.640364 111.467125 151.974182 111.308145 152.394545 111.308145zM152.258545 113.610402C152.796364 113.610402 153.068364 113.221786 153.068364 112.597645 153.068364 111.932287 152.759273 111.708538 152.314182 111.708538 151.9 111.708538 151.584727 111.944063 151.374545 112.279686 151.393091 113.198234 151.652727 113.610402 152.258545 113.610402zM156.456 111.885182C156.456 110.648675 156.029455 110.024534 155.139273 109.270854L155.405091 109C156.412727 109.783121 157 110.542689 157 111.885182 157 113.227674 156.412727 113.987242 155.405091 114.770363L155.139273 114.499509C156.017091 113.751717 156.456 113.1158 156.456 111.885182zM80.544 138.885182C80.544 140.1158 80.9829091 140.751717 81.8607273 141.499509L81.5949091 141.770363C80.5872727 140.987242 80 140.227674 80 138.885182 80 137.542689 80.5872727 136.783121 81.5949091 136L81.8607273 136.270854C80.9705455 137.024534 80.544 137.648675 80.544 138.885182zM86.2003636 139.562316L86.2003636 139.962709 85.6501818 139.962709 85.6501818 140.946026 85.1494545 140.946026 85.1494545 139.962709 83.3814545 139.962709 83.3814545 139.597645 84.6301818 136.824338 85.0629091 137.000981 83.9316364 139.562316 85.1556364 139.562316 85.1989091 138.414132 85.6501818 138.414132 85.6501818 139.562316 86.2003636 139.562316zM88.5 139.974485C88.7843636 139.974485 89.0007273 140.186457 89.0007273 140.445535 89.0007273 140.592738 88.9698182 140.728165 88.8832727 140.910697L88.3825455 142 87.9127273 142 88.2032727 140.840039C88.0858182 140.757605 88.0054545 140.604514 88.0054545 140.451423 88.0054545 140.186457 88.2218182 139.974485 88.5 139.974485zM91.7763636 140.999019L91.2941818 140.863592 92.9509091 137.301276 90.9541818 137.301276 90.9541818 136.889107 93.4763636 136.889107 93.4763636 137.271835 91.7763636 140.999019zM96.456 138.885182C96.456 137.648675 96.0294545 137.024534 95.1392727 136.270854L95.4050909 136C96.4127273 136.783121 97 137.542689 97 138.885182 97 140.227674 96.4127273 140.987242 95.4050909 141.770363L95.1392727 141.499509C96.0170909 140.751717 96.456 140.1158 96.456 138.885182zM22.544 102.885182C22.544 104.1158 22.9829091 104.751717 23.8607273 105.499509L23.5949091 105.770363C22.5872727 104.987242 22 104.227674 22 102.885182 22 101.542689 22.5872727 100.783121 23.5949091 100L23.8607273 100.270854C22.9705455 101.024534 22.544 101.648675 22.544 102.885182zM27.2483636 104.545633L28.1323636 104.545633 28.1323636 104.946026 25.6781818 104.946026 25.6781818 104.545633 26.7229091 104.545633 26.7229091 101.430815 25.7523636 101.990186 25.5236364 101.642787 26.7909091 100.889107 27.2483636 100.889107 27.2483636 104.545633zM30.5 103.974485C30.7843636 103.974485 31.0007273 104.186457 31.0007273 104.445535 31.0007273 104.592738 30.9698182 104.728165 30.8832727 104.910697L30.3825455 106 29.9127273 106 30.2032727 104.840039C30.0858182 104.757605 30.0054545 104.604514 30.0054545 104.451423 30.0054545 104.186457 30.2218182 103.974485 30.5 103.974485zM35.3650909 100.889107L35.2909091 101.2895 33.6094545 101.2895 33.6094545 102.567223C33.8629091 102.431796 34.0854545 102.390579 34.3389091 102.390579 35.0374545 102.390579 35.5072727 102.849853 35.5072727 103.662414 35.5072727 104.474975 34.9447273 105.010795 34.0669091 105.010795 33.5538182 105.010795 33.1581818 104.828263 32.8305455 104.527969L33.152 104.227674C33.4116364 104.480864 33.7021818 104.604514 34.0669091 104.604514 34.6294545 104.604514 34.9632727 104.274779 34.9632727 103.64475 34.9632727 102.997056 34.6232727 102.779195 34.1905455 102.779195 33.9432727 102.779195 33.7763636 102.832188 33.5290909 102.914622L33.1087273 102.914622 33.1087273 100.889107 35.3650909 100.889107zM38.456 102.885182C38.456 101.648675 38.0294545 101.024534 37.1392727 100.270854L37.4050909 100C38.4127273 100.783121 39 101.542689 39 102.885182 39 104.227674 38.4127273 104.987242 37.4050909 105.770363L37.1392727 105.499509C38.0170909 104.751717 38.456 104.1158 38.456 102.885182z"/>
    <polygon fill="#000" points="177 57 177 55.926 177.773 55.926 177.773 51.074 177 51.074 177 50 182 50 182 52 180.887 52 180.887 51.064 178.938 51.064 178.938 53.064 180.938 53.064 180.938 54.096 178.938 54.096 178.938 55.926 179.835 55.926 179.835 57"/>
    <polygon fill="#000" points="137 35 137 33.926 137.762 33.926 137.762 29.074 137 29.074 137 28 141.99 28 141.99 30 140.892 30 140.892 29.064 138.911 29.064 138.911 30.936 140.933 30.936 140.933 31.957 138.911 31.957 138.911 33.936 140.902 33.936 140.902 33 142 33 142 35"/>
    <path fill="#000" d="M73.4117647 14C71.4215686 14 70 12.6041056 70 10.5 70 8.46774194 71.5098039 7 73.3921569 7 74.8921569 7 75.8921569 7.82111437 75.8921569 8.63196481 75.8921569 9.12463343 75.5882353 9.46334311 75.1862745 9.46334311 74.745098 9.46334311 74.4411765 9.17595308 74.4411765 8.73460411 74.4411765 8.60117302 74.4705882 8.46774194 74.5098039 8.3856305 74.3235294 8.23167155 73.9509804 8.07771261 73.3627451 8.07771261 72.1078431 8.07771261 71.1470588 9.08357771 71.1470588 10.4897361 71.1470588 11.8445748 72.0490196 12.9222874 73.4117647 12.9222874 74.1666667 12.9222874 74.7843137 12.5733138 75.2647059 12.0293255L76 12.829912C75.372549 13.558651 74.4411765 14 73.4117647 14zM7 104L7 102.925532 7.59552239 102.925532 9.30895522 98.0638298 8.55671642 98.0638298 8.55671642 97 12.4432836 97 12.4432836 98.0638298 11.6910448 98.0638298 13.4044776 102.925532 14 102.925532 14 104 11.3567164 104 11.3567164 102.93617 12.1507463 102.93617 11.7641791 101.787234 9.19402985 101.787234 8.80746269 102.93617 9.64328358 102.93617 9.64328358 104 7 104zM9.51791045 100.787234L11.4402985 100.787234 10.4791045 98.0319149 9.51791045 100.787234zM69 147L69 145.925532 69.7183908 145.925532 69.7183908 141.074468 69 141.074468 69 140 71.5191571 140C73.0613027 140 73.8180077 140.787234 73.8180077 141.840426 73.8180077 142.648936 73.3678161 143.170213 72.7452107 143.404255 73.5306513 143.659574 74 144.170213 74 145.042553 74 146.202128 73.1570881 147 71.6245211 147L69 147zM70.7911877 145.946809L71.6436782 145.946809C72.3908046 145.946809 72.8888889 145.606383 72.8888889 144.93617 72.8888889 144.287234 72.4291188 143.925532 71.6149425 143.925532L70.7911877 143.925532 70.7911877 145.946809zM70.7911877 142.968085L71.5287356 142.968085C72.2854406 142.968085 72.7068966 142.585106 72.7068966 141.978723 72.7068966 141.382979 72.2662835 141.053191 71.5 141.053191L70.7911877 141.053191 70.7911877 142.968085zM82 75L82 73.9255319 82.729572 73.9255319 82.729572 69.0744681 82 69.0744681 82 68 84.577821 68C85.9494163 68 87 68.8617021 87 70.287234 87 71.893617 85.959144 72.6808511 84.4513619 72.6808511 84.1498054 72.6808511 83.9649805 72.6808511 83.8287938 72.6702128L83.8287938 73.9255319 84.6264591 73.9255319 84.6264591 75 82 75zM84.5486381 71.6276596C85.3754864 71.6276596 85.8618677 71.1170213 85.8618677 70.287234 85.8618677 69.5531915 85.307393 69.0744681 84.5194553 69.0744681L83.8287938 69.0744681 83.8287938 71.606383C83.9455253 71.6170213 84.1011673 71.6276596 84.5486381 71.6276596zM138 126L138 124.925532 138.716561 124.925532 138.716561 120.074468 138 120.074468 138 119 140.378981 119C142.652866 119 144 120.319149 144 122.43617 144 124.574468 142.729299 126 140.264331 126L138 126zM139.796178 124.925532L140.417197 124.925532C142.041401 124.925532 142.882166 123.946809 142.882166 122.446809 142.882166 120.914894 141.907643 120.074468 140.340764 120.074468L139.796178 120.074468 139.796178 124.925532z"/>
  </g>
</svg>
