<svg xmlns="http://www.w3.org/2000/svg" width="300" height="241" viewBox="0 0 300 241">
  <g fill="none" fill-rule="evenodd">
    <g stroke="#7F8E7E" opacity=".183">
      <rect width="30.414" height="30.414" x=".5" y=".5"/>
      <rect width="30.414" height="30.414" x="30.343" y=".5"/>
      <rect width="30.414" height="30.414" x="60.186" y=".5"/>
      <rect width="30.414" height="30.414" x="90.029" y=".5"/>
      <rect width="30.414" height="30.414" x="119.872" y=".5"/>
      <rect width="30.414" height="30.414" x="149.715" y=".5"/>
      <rect width="30.414" height="30.414" x="179.558" y=".5"/>
      <rect width="30.414" height="30.414" x="209.401" y=".5"/>
      <rect width="30.414" height="30.414" x="239.243" y=".5"/>
      <rect width="30.414" height="30.414" x="269.086" y=".5"/>
      <rect width="30.414" height="30.414" x=".5" y="30.343"/>
      <rect width="30.414" height="30.414" x="30.343" y="30.343"/>
      <rect width="30.414" height="30.414" x="60.186" y="30.343"/>
      <rect width="30.414" height="30.414" x="90.029" y="30.343"/>
      <rect width="30.414" height="30.414" x="119.872" y="30.343"/>
      <rect width="30.414" height="30.414" x="149.715" y="30.343"/>
      <rect width="30.414" height="30.414" x="179.558" y="30.343"/>
      <rect width="30.414" height="30.414" x="209.401" y="30.343"/>
      <rect width="30.414" height="30.414" x="239.243" y="30.343"/>
      <rect width="30.414" height="30.414" x="269.086" y="30.343"/>
      <rect width="30.414" height="30.414" x=".5" y="60.186"/>
      <rect width="30.414" height="30.414" x="30.343" y="60.186"/>
      <rect width="30.414" height="30.414" x="60.186" y="60.186"/>
      <rect width="30.414" height="30.414" x="90.029" y="60.186"/>
      <rect width="30.414" height="30.414" x="119.872" y="60.186"/>
      <rect width="30.414" height="30.414" x="149.715" y="60.186"/>
      <rect width="30.414" height="30.414" x="179.558" y="60.186"/>
      <rect width="30.414" height="30.414" x="209.401" y="60.186"/>
      <rect width="30.414" height="30.414" x="239.243" y="60.186"/>
      <rect width="30.414" height="30.414" x="269.086" y="60.186"/>
      <rect width="30.414" height="30.414" x=".5" y="90.029"/>
      <rect width="30.414" height="30.414" x="30.343" y="90.029"/>
      <rect width="30.414" height="30.414" x="60.186" y="90.029"/>
      <rect width="30.414" height="30.414" x="90.029" y="90.029"/>
      <rect width="30.414" height="30.414" x="119.872" y="90.029"/>
      <rect width="30.414" height="30.414" x="149.715" y="90.029"/>
      <rect width="30.414" height="30.414" x="179.558" y="90.029"/>
      <rect width="30.414" height="30.414" x="209.401" y="90.029"/>
      <rect width="30.414" height="30.414" x="239.243" y="90.029"/>
      <rect width="30.414" height="30.414" x="269.086" y="90.029"/>
      <rect width="30.414" height="30.414" x=".5" y="119.872"/>
      <rect width="30.414" height="30.414" x="30.343" y="119.872"/>
      <rect width="30.414" height="30.414" x="60.186" y="119.872"/>
      <rect width="30.414" height="30.414" x="90.029" y="119.872"/>
      <rect width="30.414" height="30.414" x="119.872" y="119.872"/>
      <rect width="30.414" height="30.414" x="149.715" y="119.872"/>
      <rect width="30.414" height="30.414" x="179.558" y="119.872"/>
      <rect width="30.414" height="30.414" x="209.401" y="119.872"/>
      <rect width="30.414" height="30.414" x="239.243" y="119.872"/>
      <rect width="30.414" height="30.414" x="269.086" y="119.872"/>
      <rect width="30.414" height="30.414" x=".5" y="149.715"/>
      <rect width="30.414" height="30.414" x="30.343" y="149.715"/>
      <rect width="30.414" height="30.414" x="60.186" y="149.715"/>
      <rect width="30.414" height="30.414" x="90.029" y="149.715"/>
      <rect width="30.414" height="30.414" x="119.872" y="149.715"/>
      <rect width="30.414" height="30.414" x="149.715" y="149.715"/>
      <rect width="30.414" height="30.414" x="179.558" y="149.715"/>
      <rect width="30.414" height="30.414" x="209.401" y="149.715"/>
      <rect width="30.414" height="30.414" x="239.243" y="149.715"/>
      <rect width="30.414" height="30.414" x="269.086" y="149.715"/>
      <rect width="30.414" height="30.414" x=".5" y="179.558"/>
      <rect width="30.414" height="30.414" x="30.343" y="179.558"/>
      <rect width="30.414" height="30.414" x="60.186" y="179.558"/>
      <rect width="30.414" height="30.414" x="90.029" y="179.558"/>
      <rect width="30.414" height="30.414" x="119.872" y="179.558"/>
      <rect width="30.414" height="30.414" x="149.715" y="179.558"/>
      <rect width="30.414" height="30.414" x="179.558" y="179.558"/>
      <rect width="30.414" height="30.414" x="209.401" y="179.558"/>
      <rect width="30.414" height="30.414" x="239.243" y="179.558"/>
      <rect width="30.414" height="30.414" x="269.086" y="179.558"/>
      <rect width="30.414" height="30.414" x=".5" y="209.401"/>
      <rect width="30.414" height="30.414" x="30.343" y="209.401"/>
      <rect width="30.414" height="30.414" x="60.186" y="209.401"/>
      <rect width="30.414" height="30.414" x="90.029" y="209.401"/>
      <rect width="30.414" height="30.414" x="119.872" y="209.401"/>
      <rect width="30.414" height="30.414" x="149.715" y="209.401"/>
      <rect width="30.414" height="30.414" x="179.558" y="209.401"/>
      <rect width="30.414" height="30.414" x="209.401" y="209.401"/>
      <rect width="30.414" height="30.414" x="239.243" y="209.401"/>
      <rect width="30.414" height="30.414" x="269.086" y="209.401"/>
    </g>
    <g stroke="#000" stroke-linecap="square" stroke-width="2" transform="translate(31.414 29.843)">
      <path d="M88.7434555.785340314L118.586387 90.3141361M177.486911 31.4136126L118.586387 90.3141361M237.172775 61.2565445L118.586387 90.3141361 237.172775 61.2565445zM177.486911 149.21466L118.586387 90.3141361M89.5287958 179.057592L118.586387 90.3141361M0 119.371728L118.586387 90.3141361"/>
    </g>
    <circle cx="150.785" cy="119.372" r="6.283" fill="#FFBEBE" stroke="#000"/>
    <circle cx="269.372" cy="90.314" r="5.497" fill="#BEF6FF" stroke="#000"/>
    <circle cx="209.686" cy="60.471" r="5.497" fill="#BEF6FF" stroke="#000"/>
    <circle cx="120.157" cy="30.628" r="5.497" fill="#BEF6FF" stroke="#000"/>
    <circle cx="30.628" cy="150" r="5.497" fill="#BEF6FF" stroke="#000"/>
    <circle cx="120.157" cy="209.686" r="5.497" fill="#BEF6FF" stroke="#000"/>
    <circle cx="209.686" cy="179.843" r="5.497" fill="#BEF6FF" stroke="#000"/>
    <path fill="#000" d="M164.205236 125.474107C164.205236 127.407015 164.894622 128.405839 166.273394 129.580381L165.855878 130.005806C164.273203 128.775773 163.350785 127.582734 163.350785 125.474107 163.350785 123.36548 164.273203 122.172441 165.855878 120.942408L166.273394 121.367833C164.875202 122.551624 164.205236 123.531951 164.205236 125.474107zM172.69148 122.338911L172.574964 122.9678 169.933936 122.9678 169.933936 124.974695C170.332032 124.761983 170.68158 124.697245 171.079676 124.697245 172.176868 124.697245 172.914802 125.418617 172.914802 126.694891 172.914802 127.971166 172.031223 128.812767 170.652451 128.812767 169.846549 128.812767 169.225131 128.526068 168.710519 128.054401L169.215421 127.582734C169.623227 127.980414 170.079581 128.17463 170.652451 128.17463 171.53603 128.17463 172.060352 127.656721 172.060352 126.667146 172.060352 125.649826 171.526321 125.307637 170.846644 125.307637 170.458258 125.307637 170.196097 125.390872 169.807711 125.520349L169.147454 125.520349 169.147454 122.338911 172.69148 122.338911zM176.701571 127.185055C177.148215 127.185055 177.488053 127.517996 177.488053 127.924924 177.488053 128.156133 177.439505 128.368845 177.30357 128.655545L176.517087 130.366492 175.779153 130.366492 176.235507 128.544564C176.051023 128.415087 175.924798 128.17463 175.924798 127.934172 175.924798 127.517996 176.264636 127.185055 176.701571 127.185055zM184.741171 126.537669L184.741171 127.166558 183.877011 127.166558 183.877011 128.711035 183.090528 128.711035 183.090528 127.166558 180.313565 127.166558 180.313565 126.593159 182.274917 122.237179 182.954593 122.51463 181.177725 126.537669 183.100238 126.537669 183.168206 124.734238 183.877011 124.734238 183.877011 126.537669 184.741171 126.537669zM189.197906 125.474107C189.197906 123.531951 188.527939 122.551624 187.129748 121.367833L187.547263 120.942408C189.129938 122.172441 190.052356 123.36548 190.052356 125.474107 190.052356 127.582734 189.129938 128.775773 187.547263 130.005806L187.129748 129.580381C188.50852 128.405839 189.197906 127.407015 189.197906 125.474107zM129.650262 37.515992C129.650262 39.4489002 130.339648 40.4477236 131.71842 41.622266L131.300904 42.0476907C129.718229 40.8176582 128.795812 39.6246191 128.795812 37.515992 128.795812 35.4073648 129.718229 34.2143257 131.300904 32.9842932L131.71842 33.409718C130.320228 34.5935087 129.650262 35.5738353 129.650262 37.515992zM136.0198 34.2790643C137.282056 34.2790643 138.068539 35.0096851 138.068539 35.8790314 138.068539 36.6466457 137.46654 37.2292927 136.767444 37.3587698 137.544217 37.41426 138.282151 37.9321684 138.282151 38.9217434 138.282151 40.0222988 137.350024 40.8546517 135.961542 40.8546517 135.213898 40.8546517 134.417706 40.5956975 133.912803 40.0130505L134.456545 39.5876257C134.835221 40.0130505 135.398382 40.2165145 135.942123 40.2165145 136.87425 40.2165145 137.427701 39.7171028 137.427701 38.9217434 137.427701 38.0061553 136.835412 37.7102076 136.039219 37.7102076L135.485769 37.7102076 135.582865 37.0905672 135.980961 37.0905672C136.621799 37.0905672 137.243218 36.7483777 137.243218 35.9807634 137.243218 35.287136 136.689767 34.9079531 135.980961 34.9079531 135.408091 34.9079531 135.009995 35.1021687 134.563351 35.4906001L134.116706 35.0189335C134.689576 34.501025 135.330414 34.2790643 136.0198 34.2790643zM142.146597 39.2269395C142.593241 39.2269395 142.933079 39.5598806 142.933079 39.9668086 142.933079 40.1980178 142.884531 40.4107302 142.748596 40.6974295L141.962113 42.408377 141.224179 42.408377 141.680533 40.5864491C141.49605 40.456972 141.369824 40.2165145 141.369824 39.976057 141.369824 39.5598806 141.709662 39.2269395 142.146597 39.2269395zM148.690909 40.1240308L150.079391 40.1240308 150.079391 40.7529197 146.224655 40.7529197 146.224655 40.1240308 147.865588 40.1240308 147.865588 35.2316458 146.341171 36.1102405 145.981913 35.564587 147.972394 34.3807963 148.690909 34.3807963 148.690909 40.1240308zM154.642932 37.515992C154.642932 35.5738353 153.972965 34.5935087 152.574774 33.409718L152.992289 32.9842932C154.574964 34.2143257 155.497382 35.4073648 155.497382 37.515992 155.497382 39.6246191 154.574964 40.8176582 152.992289 42.0476907L152.574774 41.622266C153.953546 40.4477236 154.642932 39.4489002 154.642932 37.515992zM211.325654 73.6416464C211.325654 75.5745547 212.01504 76.5733781 213.393812 77.7479204L212.976297 78.1733452C211.393622 76.9433127 210.471204 75.7502736 210.471204 73.6416464 210.471204 71.5330192 211.393622 70.3399802 212.976297 69.1099476L213.393812 69.5353724C211.995621 70.7191631 211.325654 71.6994898 211.325654 73.6416464zM217.316516 76.9618094L216.559162 76.749097 219.161352 71.1538363 216.025131 71.1538363 216.025131 70.5064507 219.986673 70.5064507 219.986673 71.1075944 217.316516 76.9618094zM223.82199 75.3525939C224.268634 75.3525939 224.608472 75.685535 224.608472 76.0924631 224.608472 76.3236722 224.559924 76.5363846 224.423989 76.8230839L223.637506 78.5340314 222.899572 78.5340314 223.355926 76.7121035C223.171442 76.5826264 223.045217 76.3421689 223.045217 76.1017115 223.045217 75.685535 223.385055 75.3525939 223.82199 75.3525939zM229.346787 70.4047187C230.609043 70.4047187 231.366397 71.172333 231.366397 72.1804048 231.366397 73.3549471 230.579914 74.2982803 228.375821 76.2126918L231.521752 76.2126918 231.424655 76.8785741 227.443693 76.8785741 227.443693 76.2496853C229.968206 73.9468425 230.511947 73.2439667 230.511947 72.2081499 230.511947 71.4960258 230.055593 71.0613526 229.307949 71.0613526 228.657401 71.0613526 228.298144 71.2648167 227.870919 71.7364833L227.307758 71.3203068C227.83208 70.7099148 228.443789 70.4047187 229.346787 70.4047187zM236.318325 73.6416464C236.318325 71.6994898 235.648358 70.7191631 234.250167 69.5353724L234.667682 69.1099476C236.250357 70.3399802 237.172775 71.5330192 237.172775 73.6416464 237.172775 75.7502736 236.250357 76.9433127 234.667682 78.1733452L234.250167 77.7479204C235.628939 76.5733781 236.318325 75.5745547 236.318325 73.6416464zM267.870157 105.055259C267.870157 106.988167 268.559543 107.986991 269.938315 109.161533L269.5208 109.586958C267.938125 108.356925 267.015707 107.163886 267.015707 105.055259 267.015707 102.946632 267.938125 101.753593 269.5208 100.52356L269.938315 100.948985C268.540124 102.132776 267.870157 103.113102 267.870157 105.055259zM274.433889 101.82758C275.929177 101.82758 276.618563 102.770913 276.618563 104.287645 276.618563 107.006664 275.5505 107.82052 273.055117 108.486402L272.860923 107.894507C274.647501 107.450585 275.725274 106.719965 275.754403 105.175488 275.463113 105.582416 274.929081 105.943102 274.191147 105.961599 273.074536 105.970847 272.268634 105.193984 272.268634 103.926958 272.268634 102.5582 273.229891 101.82758 274.433889 101.82758zM274.336792 105.33271C274.95821 105.323462 275.414564 104.99052 275.773822 104.491109 275.802951 102.965129 275.366016 102.456468 274.433889 102.456468 273.569729 102.456468 273.123084 102.974377 273.123084 103.954704 273.123084 104.925782 273.579438 105.341958 274.336792 105.33271zM280.366492 106.766206C280.813137 106.766206 281.152975 107.099148 281.152975 107.506076 281.152975 107.737285 281.104426 107.949997 280.968491 108.236696L280.182009 109.947644 279.444074 109.947644 279.900428 108.125716C279.715945 107.996239 279.589719 107.755782 279.589719 107.515324 279.589719 107.099148 279.929557 106.766206 280.366492 106.766206zM285.89129 101.818331C287.153546 101.818331 287.940029 102.548952 287.940029 103.418298 287.940029 104.185913 287.33803 104.76856 286.638934 104.898037 287.415707 104.953527 288.153641 105.471435 288.153641 106.46101 288.153641 107.561566 287.221514 108.393919 285.833032 108.393919 285.085388 108.393919 284.289196 108.134964 283.784293 107.552317L284.328034 107.126893C284.706711 107.552317 285.269871 107.755782 285.813613 107.755782 286.74574 107.755782 287.299191 107.25637 287.299191 106.46101 287.299191 105.545422 286.706901 105.249475 285.910709 105.249475L285.357258 105.249475 285.454355 104.629834 285.852451 104.629834C286.493289 104.629834 287.114707 104.287645 287.114707 103.52003 287.114707 102.826403 286.561257 102.44722 285.852451 102.44722 285.279581 102.44722 284.881485 102.641436 284.434841 103.029867L283.988196 102.5582C284.561066 102.040292 285.201904 101.818331 285.89129 101.818331zM292.862827 105.055259C292.862827 103.113102 292.192861 102.132776 290.794669 100.948985L291.212185 100.52356C292.79486 101.753593 293.717277 102.946632 293.717277 105.055259 293.717277 107.163886 292.79486 108.356925 291.212185 109.586958L290.794669 109.161533C292.173441 107.986991 292.862827 106.988167 292.862827 105.055259zM220.749738 175.735887C220.749738 177.668796 221.439124 178.667619 222.817896 179.842161L222.400381 180.267586C220.817706 179.037553 219.895288 177.844514 219.895288 175.735887 219.895288 173.62726 220.817706 172.434221 222.400381 171.204188L222.817896 171.629613C221.419705 172.813404 220.749738 173.793731 220.749738 175.735887zM226.7406 179.05605L225.983246 178.843338 228.585436 173.248077 225.449215 173.248077 225.449215 172.600692 229.410757 172.600692 229.410757 173.201835 226.7406 179.05605zM233.246073 177.446835C233.692718 177.446835 234.032556 177.779776 234.032556 178.186704 234.032556 178.417913 233.984008 178.630625 233.848072 178.917325L233.06159 180.628272 232.323655 180.628272 232.78001 178.806344C232.595526 178.676867 232.4693 178.43641 232.4693 178.195952 232.4693 177.779776 232.809139 177.446835 233.246073 177.446835zM239.36316 174.829547C240.382675 174.829547 241.256545 175.467685 241.256545 176.827194 241.256545 178.242194 240.314707 179.074547 239.149548 179.074547 237.528034 179.074547 236.926035 177.863011 236.926035 175.967096 236.926035 173.849221 237.848453 172.49896 239.411709 172.49896 239.93603 172.49896 240.363256 172.637685 240.741932 172.878143L240.421514 173.396051C240.110804 173.220332 239.770966 173.127848 239.401999 173.127848 238.382485 173.127848 237.780485 174.126672 237.751356 175.680397 238.178582 175.079253 238.702903 174.829547 239.36316 174.829547zM239.149548 178.445658C239.994288 178.445658 240.421514 177.835266 240.421514 176.854939 240.421514 175.809874 239.93603 175.458436 239.236935 175.458436 238.586387 175.458436 238.091195 175.828371 237.761066 176.355528 237.790195 177.798273 238.198001 178.445658 239.149548 178.445658zM245.742408 175.735887C245.742408 173.793731 245.072442 172.813404 243.67425 171.629613L244.091766 171.204188C245.674441 172.434221 246.596859 173.62726 246.596859 175.735887 246.596859 177.844514 245.674441 179.037553 244.091766 180.267586L243.67425 179.842161C245.053022 178.667619 245.742408 177.668796 245.742408 175.735887zM126.508901 218.144264C126.508901 220.077172 127.198287 221.075996 128.577059 222.250538L128.159543 222.675963C126.576868 221.44593 125.65445 220.252891 125.65445 218.144264 125.65445 216.035637 126.576868 214.842598 128.159543 213.612565L128.577059 214.03799C127.178867 215.221781 126.508901 216.202108 126.508901 218.144264zM135.393241 219.207826L135.393241 219.836715 134.529081 219.836715 134.529081 221.381192 133.742599 221.381192 133.742599 219.836715 130.965635 219.836715 130.965635 219.263316 132.926987 214.907337 133.606663 215.184787 131.829795 219.207826 133.752308 219.207826 133.820276 217.404395 134.529081 217.404395 134.529081 219.207826 135.393241 219.207826zM139.005236 219.855212C139.45188 219.855212 139.791718 220.188153 139.791718 220.595081 139.791718 220.82629 139.74317 221.039002 139.607235 221.325702L138.820752 223.036649 138.082818 223.036649 138.539172 221.214721C138.354688 221.085244 138.228463 220.844787 138.228463 220.604329 138.228463 220.188153 138.568301 219.855212 139.005236 219.855212zM144.151356 221.464427L143.394003 221.251715 145.996192 215.656454 142.859971 215.656454 142.859971 215.009069 146.821514 215.009069 146.821514 215.610212 144.151356 221.464427zM151.501571 218.144264C151.501571 216.202108 150.831604 215.221781 149.433413 214.03799L149.850928 213.612565C151.433603 214.842598 152.356021 216.035637 152.356021 218.144264 152.356021 220.252891 151.433603 221.44593 149.850928 222.675963L149.433413 222.250538C150.812185 221.075996 151.501571 220.077172 151.501571 218.144264zM35.4094241 161.599762C35.4094241 163.53267 36.0988101 164.531493 37.4775821 165.706036L37.0600666 166.13146C35.4773917 164.901428 34.5549738 163.708389 34.5549738 161.599762 34.5549738 159.491134 35.4773917 158.298095 37.0600666 157.068063L37.4775821 157.493488C36.0793908 158.677278 35.4094241 159.657605 35.4094241 161.599762zM42.7984769 164.2078L44.1869586 164.2078 44.1869586 164.836689 40.3322228 164.836689 40.3322228 164.2078 41.9731556 164.2078 41.9731556 159.315415 40.4487387 160.19401 40.0894812 159.648357 42.0799619 158.464566 42.7984769 158.464566 42.7984769 164.2078zM47.9057592 163.310709C48.3524036 163.310709 48.6922418 163.64365 48.6922418 164.050578 48.6922418 164.281787 48.6436935 164.4945 48.5077582 164.781199L47.7212756 166.492147 46.9833413 166.492147 47.4396954 164.670219C47.2552118 164.540742 47.1289862 164.300284 47.1289862 164.059827 47.1289862 163.64365 47.4688244 163.310709 47.9057592 163.310709zM55.5472632 158.464566L55.4307473 159.093455 52.7897192 159.093455 52.7897192 161.10035C53.1878153 160.887638 53.5373632 160.822899 53.9354593 160.822899 55.0326511 160.822899 55.7705854 161.544271 55.7705854 162.820546 55.7705854 164.09682 54.8870062 164.938421 53.5082342 164.938421 52.7023322 164.938421 52.0809139 164.651722 51.5663018 164.180055L52.0712042 163.708389C52.47901 164.106068 52.9353641 164.300284 53.5082342 164.300284 54.3918134 164.300284 54.9161352 163.782376 54.9161352 162.792801 54.9161352 161.775481 54.3821038 161.433291 53.7024274 161.433291 53.3140409 161.433291 53.0518801 161.516526 52.6634936 161.646003L52.0032366 161.646003 52.0032366 158.464566 55.5472632 158.464566zM60.4020942 161.599762C60.4020942 159.657605 59.7321276 158.677278 58.3339362 157.493488L58.7514517 157.068063C60.3341266 158.298095 61.2565445 159.491134 61.2565445 161.599762 61.2565445 163.708389 60.3341266 164.901428 58.7514517 166.13146L58.3339362 165.706036C59.7127082 164.531493 60.4020942 163.53267 60.4020942 161.599762z"/>
    <polygon fill="#000" points="278.01 89.529 278.01 87.841 279.225 87.841 279.225 80.222 278.01 80.222 278.01 78.534 285.864 78.534 285.864 81.675 284.115 81.675 284.115 80.205 281.055 80.205 281.055 83.346 284.196 83.346 284.196 84.967 281.055 84.967 281.055 87.841 282.463 87.841 282.463 89.529"/>
    <polygon fill="#000" points="215.183 54.974 215.183 53.286 216.38 53.286 216.38 45.667 215.183 45.667 215.183 43.979 223.021 43.979 223.021 47.12 221.297 47.12 221.297 45.65 218.184 45.65 218.184 48.591 221.361 48.591 221.361 50.195 218.184 50.195 218.184 53.303 221.313 53.303 221.313 51.832 223.037 51.832 223.037 54.974"/>
    <path fill="#000" d="M115.306437 21.9895288C112.180474 21.9895288 109.947644 19.7970245 109.947644 16.4921466 109.947644 13.3001182 112.319064 10.9947644 115.275639 10.9947644 117.63166 10.9947644 119.202341 12.2844728 119.202341 13.5580599 119.202341 14.331885 118.724977 14.8638897 118.093625 14.8638897 117.400678 14.8638897 116.923314 14.4124917 116.923314 13.7192735 116.923314 13.5096958 116.96951 13.3001182 117.031106 13.1711474 116.738528 12.929327 116.153372 12.6875067 115.229443 12.6875067 113.258392 12.6875067 111.749307 14.2673995 111.749307 16.4760252 111.749307 18.6040442 113.165999 20.2967865 115.306437 20.2967865 116.492147 20.2967865 117.462273 19.7486604 118.216816 18.8942286L119.371728 20.1516943C118.386203 21.2963105 116.923314 21.9895288 115.306437 21.9895288zM10.9947644 163.350785L10.9947644 161.663139 11.9301399 161.663139 14.6213956 154.026958 13.4398687 154.026958 13.4398687 152.356021 19.5444245 152.356021 19.5444245 154.026958 18.3628976 154.026958 21.0541533 161.663139 21.9895288 161.663139 21.9895288 163.350785 17.8377745 163.350785 17.8377745 161.679849 19.0849418 161.679849 18.4777682 159.875237 14.4408846 159.875237 13.833711 161.679849 15.1465187 161.679849 15.1465187 163.350785 10.9947644 163.350785zM14.9495976 158.304556L17.9690552 158.304556 16.4593264 153.97683 14.9495976 158.304556zM108.376963 230.890052L108.376963 229.202406 109.505326 229.202406 109.505326 221.582934 108.376963 221.582934 108.376963 219.895288 112.333755 219.895288C114.755973 219.895288 115.944515 221.131781 115.944515 222.786009 115.944515 224.055921 115.237407 224.87468 114.259493 225.242286 115.49317 225.643311 116.230366 226.44536 116.230366 227.815529 116.230366 229.63685 114.906421 230.890052 112.499248 230.890052L108.376963 230.890052zM111.190347 229.235825L112.529337 229.235825C113.702834 229.235825 114.485166 228.701125 114.485166 227.648435 114.485166 226.629163 113.763014 226.061045 112.484203 226.061045L111.190347 226.061045 111.190347 229.235825zM111.190347 224.557202L112.348799 224.557202C113.537341 224.557202 114.199314 223.955664 114.199314 223.00323 114.199314 222.067506 113.507252 221.549515 112.303665 221.549515L111.190347 221.549515 111.190347 224.557202zM128.795812 117.801047L128.795812 116.113401 129.941736 116.113401 129.941736 108.493929 128.795812 108.493929 128.795812 106.806283 132.844745 106.806283C134.999083 106.806283 136.649215 108.159742 136.649215 110.398797 136.649215 112.921912 135.014362 114.158405 132.646118 114.158405 132.172469 114.158405 131.882168 114.158405 131.668262 114.141695L131.668262 116.113401 132.92114 116.113401 132.92114 117.801047 128.795812 117.801047zM132.798908 112.504177C134.097623 112.504177 134.861572 111.702128 134.861572 110.398797 134.861572 109.245851 133.99067 108.493929 132.753071 108.493929L131.668262 108.493929 131.668262 112.470759C131.85161 112.487468 132.096074 112.504177 132.798908 112.504177zM216.753927 197.905759L216.753927 196.218113 217.879414 196.218113 217.879414 188.598641 216.753927 188.598641 216.753927 186.910995 220.490546 186.910995C224.062094 186.910995 226.17801 188.982956 226.17801 192.308121 226.17801 195.666704 224.182146 197.905759 220.310468 197.905759L216.753927 197.905759zM219.575149 196.218113L220.550572 196.218113C223.101677 196.218113 224.42225 194.680851 224.42225 192.32483 224.42225 189.918681 222.891586 188.598641 220.43052 188.598641L219.575149 188.598641 219.575149 196.218113z"/>
  </g>
</svg>
